{
    "asset" : {
        "generator" : "Khronos glTF Blender I/O v3.2.40",
        "version" : "2.0"
    },
    "scene" : 0,
    "scenes" : [
        {
            "name" : "Scene",
            "nodes" : [
                0
            ]
        }
    ],
    "nodes" : [
        {
            "mesh" : 0,
            "name" : "3",
            "rotation" : [
                0.5552074909210205,
                0.17475266754627228,
                0.09309140592813492,
                0.8077996373176575
            ],
            "scale" : [
                0.040472060441970825,
                0.040472064167261124,
                0.040472064167261124
            ]
        }
    ],
    "meshes" : [
        {
            "name" : "Scan.016",
            "primitives" : [
                {
                    "attributes" : {
                        "POSITION" : 0,
                        "NORMAL" : 1
                    },
                    "indices" : 2
                }
            ]
        }
    ],
    "accessors" : [
        {
            "bufferView" : 0,
            "componentType" : 5126,
            "count" : 99228,
            "max" : [
                26.276906967163086,
                18.629770278930664,
                5.420937538146973
            ],
            "min" : [
                -14.203837394714355,
                -9.971586227416992,
                -22.48809814453125
            ],
            "type" : "VEC3"
        },
        {
            "bufferView" : 1,
            "componentType" : 5126,
            "count" : 99228,
            "type" : "VEC3"
        },
        {
            "bufferView" : 2,
            "componentType" : 5125,
            "count" : 99228,
            "type" : "SCALAR"
        }
    ],
    "bufferViews" : [
        {
            "buffer" : 0,
            "byteLength" : 1190736,
            "byteOffset" : 0
        },
        {
            "buffer" : 0,
            "byteLength" : 1190736,
            "byteOffset" : 1190736
        },
        {
            "buffer" : 0,
            "byteLength" : 396912,
            "byteOffset" : 2381472
        }
    ],
    "buffers" : [
        {
            "byteLength" : 2778384,
            "uri" : "data:application/octet-stream;base64,"
        }
    ]
}
