{
    "asset" : {
        "generator" : "Khronos glTF Blender I/O v3.2.40",
        "version" : "2.0"
    },
    "scene" : 0,
    "scenes" : [
        {
            "name" : "Scene",
            "nodes" : [
                0
            ]
        }
    ],
    "nodes" : [
        {
            "mesh" : 0,
            "name" : "11",
            "rotation" : [
                0.019008059054613113,
                0.7069392204284668,
                -0.7067051529884338,
                0.021059954538941383
            ],
            "scale" : [
                0.08164700120687485,
                0.08164700865745544,
                0.08164701610803604
            ],
            "translation" : [
                0.07505971193313599,
                0.007920891046524048,
                -0.1680857539176941
            ]
        }
    ],
    "meshes" : [
        {
            "name" : "Scan.024",
            "primitives" : [
                {
                    "attributes" : {
                        "POSITION" : 0,
                        "NORMAL" : 1
                    },
                    "indices" : 2
                }
            ]
        }
    ],
    "accessors" : [
        {
            "bufferView" : 0,
            "componentType" : 5126,
            "count" : 105654,
            "max" : [
                22.78719139099121,
                16.243701934814453,
                15.051803588867188
            ],
            "min" : [
                -25.154796600341797,
                -21.95993423461914,
                -17.846237182617188
            ],
            "type" : "VEC3"
        },
        {
            "bufferView" : 1,
            "componentType" : 5126,
            "count" : 105654,
            "type" : "VEC3"
        },
        {
            "bufferView" : 2,
            "componentType" : 5125,
            "count" : 105654,
            "type" : "SCALAR"
        }
    ],
    "bufferViews" : [
        {
            "buffer" : 0,
            "byteLength" : 1267848,
            "byteOffset" : 0
        },
        {
            "buffer" : 0,
            "byteLength" : 1267848,
            "byteOffset" : 1267848
        },
        {
            "buffer" : 0,
            "byteLength" : 422616,
            "byteOffset" : 2535696
        }
    ],
    "buffers" : [
        {
            "byteLength" : 2958312,
            "uri" : "data:application/octet-stream;base64,"
        }
    ]
}
