{
    "asset" : {
        "generator" : "Khronos glTF Blender I/O v3.2.40",
        "version" : "2.0"
    },
    "scene" : 0,
    "scenes" : [
        {
            "name" : "Scene",
            "nodes" : [
                0
            ]
        }
    ],
    "nodes" : [
        {
            "mesh" : 0,
            "name" : "9.001",
            "rotation" : [
                0.6624644994735718,
                -0.00039631297113373876,
                0.002644492778927088,
                0.7490885257720947
            ],
            "scale" : [
                0.14517450332641602,
                0.14517448842525482,
                0.14517448842525482
            ],
            "translation" : [
                0.6345833539962769,
                -0.6036708950996399,
                -0.7362676858901978
            ]
        }
    ],
    "meshes" : [
        {
            "name" : "Scan.001",
            "primitives" : [
                {
                    "attributes" : {
                        "POSITION" : 0,
                        "NORMAL" : 1
                    },
                    "indices" : 2
                }
            ]
        }
    ],
    "accessors" : [
        {
            "bufferView" : 0,
            "componentType" : 5126,
            "count" : 48426,
            "max" : [
                6.848898887634277,
                9.697762489318848,
                2.8077621459960938
            ],
            "min" : [
                -22.34943199157715,
                -15.506409645080566,
                -21.06725311279297
            ],
            "type" : "VEC3"
        },
        {
            "bufferView" : 1,
            "componentType" : 5126,
            "count" : 48426,
            "type" : "VEC3"
        },
        {
            "bufferView" : 2,
            "componentType" : 5123,
            "count" : 48426,
            "type" : "SCALAR"
        }
    ],
    "bufferViews" : [
        {
            "buffer" : 0,
            "byteLength" : 581112,
            "byteOffset" : 0
        },
        {
            "buffer" : 0,
            "byteLength" : 581112,
            "byteOffset" : 581112
        },
        {
            "buffer" : 0,
            "byteLength" : 96852,
            "byteOffset" : 1162224
        }
    ],
    "buffers" : [
        {
            "byteLength" : 1259076,
            "uri" : "data:application/octet-stream;base64,"
        }
    ]
}
