{
    "asset" : {
        "generator" : "Khronos glTF Blender I/O v3.2.40",
        "version" : "2.0"
    },
    "scene" : 0,
    "scenes" : [
        {
            "name" : "Scene",
            "nodes" : [
                0
            ]
        }
    ],
    "nodes" : [
        {
            "mesh" : 0,
            "name" : "7",
            "rotation" : [
                0.3231399953365326,
                0.0006519830203615129,
                0.0025933224242180586,
                0.9463474154472351
            ],
            "scale" : [
                0.10913346707820892,
                0.10913348942995071,
                0.10913348942995071
            ]
        }
    ],
    "meshes" : [
        {
            "name" : "Scan.020",
            "primitives" : [
                {
                    "attributes" : {
                        "POSITION" : 0,
                        "NORMAL" : 1
                    },
                    "indices" : 2
                }
            ]
        }
    ],
    "accessors" : [
        {
            "bufferView" : 0,
            "componentType" : 5126,
            "count" : 21837,
            "max" : [
                10.494436264038086,
                14.27901840209961,
                16.533832550048828
            ],
            "min" : [
                -16.67214012145996,
                -13.67392349243164,
                -14.286710739135742
            ],
            "type" : "VEC3"
        },
        {
            "bufferView" : 1,
            "componentType" : 5126,
            "count" : 21837,
            "type" : "VEC3"
        },
        {
            "bufferView" : 2,
            "componentType" : 5123,
            "count" : 21837,
            "type" : "SCALAR"
        }
    ],
    "bufferViews" : [
        {
            "buffer" : 0,
            "byteLength" : 262044,
            "byteOffset" : 0
        },
        {
            "buffer" : 0,
            "byteLength" : 262044,
            "byteOffset" : 262044
        },
        {
            "buffer" : 0,
            "byteLength" : 43674,
            "byteOffset" : 524088
        }
    ],
    "buffers" : [
        {
            "byteLength" : 567764,
            "uri" : "data:application/octet-stream;base64,"
        }
    ]
}
