{
    "asset" : {
        "generator" : "Khronos glTF Blender I/O v3.2.40",
        "version" : "2.0"
    },
    "scene" : 0,
    "scenes" : [
        {
            "name" : "Scene",
            "nodes" : [
                0
            ]
        }
    ],
    "nodes" : [
        {
            "mesh" : 0,
            "name" : "5",
            "rotation" : [
                0.1393456608057022,
                -0.00036115976399742067,
                0.0026495219208300114,
                0.990240216255188
            ],
            "scale" : [
                0.1329239457845688,
                0.13292396068572998,
                0.13292397558689117
            ]
        }
    ],
    "meshes" : [
        {
            "name" : "Scan.018",
            "primitives" : [
                {
                    "attributes" : {
                        "POSITION" : 0,
                        "NORMAL" : 1
                    },
                    "indices" : 2
                }
            ]
        }
    ],
    "accessors" : [
        {
            "bufferView" : 0,
            "componentType" : 5126,
            "count" : 76461,
            "max" : [
                11.157150268554688,
                21.07171630859375,
                20.519681930541992
            ],
            "min" : [
                -26.79220199584961,
                -8.309516906738281,
                -36.24454879760742
            ],
            "type" : "VEC3"
        },
        {
            "bufferView" : 1,
            "componentType" : 5126,
            "count" : 76461,
            "type" : "VEC3"
        },
        {
            "bufferView" : 2,
            "componentType" : 5125,
            "count" : 76461,
            "type" : "SCALAR"
        }
    ],
    "bufferViews" : [
        {
            "buffer" : 0,
            "byteLength" : 917532,
            "byteOffset" : 0
        },
        {
            "buffer" : 0,
            "byteLength" : 917532,
            "byteOffset" : 917532
        },
        {
            "buffer" : 0,
            "byteLength" : 305844,
            "byteOffset" : 1835064
        }
    ],
    "buffers" : [
        {
            "byteLength" : 2140908,
            "uri" : "data:application/octet-stream;base64,"
        }
    ]
}
