{
    "asset" : {
        "generator" : "Khronos glTF Blender I/O v3.2.40",
        "version" : "2.0"
    },
    "scene" : 0,
    "scenes" : [
        {
            "name" : "Scene",
            "nodes" : [
                0
            ]
        }
    ],
    "nodes" : [
        {
            "mesh" : 0,
            "name" : "Scan.002",
            "rotation" : [
                0.006993315182626247,
                0.9668087363243103,
                -0.2553677260875702,
                0.00438883900642395
            ],
            "scale" : [
                0.07802027463912964,
                0.07802027463912964,
                0.07802027463912964
            ]
        }
    ],
    "materials" : [
        {
            "doubleSided" : true,
            "name" : "Material.001",
            "pbrMetallicRoughness" : {
                "baseColorFactor" : [
                    0.800000011920929,
                    0.800000011920929,
                    0.800000011920929,
                    1
                ],
                "metallicFactor" : 0,
                "roughnessFactor" : 0.5
            }
        }
    ],
    "meshes" : [
        {
            "name" : "Scan.028",
            "primitives" : [
                {
                    "attributes" : {
                        "POSITION" : 0,
                        "NORMAL" : 1
                    },
                    "indices" : 2,
                    "material" : 0
                }
            ]
        }
    ],
    "accessors" : [
        {
            "bufferView" : 0,
            "componentType" : 5126,
            "count" : 74319,
            "max" : [
                4.561200141906738,
                7.199402809143066,
                4.757866859436035
            ],
            "min" : [
                -21.4005069732666,
                -8.344402313232422,
                -13.073241233825684
            ],
            "type" : "VEC3"
        },
        {
            "bufferView" : 1,
            "componentType" : 5126,
            "count" : 74319,
            "type" : "VEC3"
        },
        {
            "bufferView" : 2,
            "componentType" : 5125,
            "count" : 74319,
            "type" : "SCALAR"
        }
    ],
    "bufferViews" : [
        {
            "buffer" : 0,
            "byteLength" : 891828,
            "byteOffset" : 0
        },
        {
            "buffer" : 0,
            "byteLength" : 891828,
            "byteOffset" : 891828
        },
        {
            "buffer" : 0,
            "byteLength" : 297276,
            "byteOffset" : 1783656
        }
    ],
    "buffers" : [
        {
            "byteLength" : 2080932,
            "uri" : "data:application/octet-stream;base64,"
        }
    ]
}
