{
    "asset" : {
        "generator" : "Khronos glTF Blender I/O v3.2.40",
        "version" : "2.0"
    },
    "scene" : 0,
    "scenes" : [
        {
            "name" : "Scene",
            "nodes" : [
                0
            ]
        }
    ],
    "nodes" : [
        {
            "mesh" : 0,
            "name" : "metascan_20220325-1122",
            "rotation" : [
                0.7071068286895752,
                0,
                0,
                0.7071067094802856
            ],
            "translation" : [
                -0.14403901994228363,
                0.20252826809883118,
                0
            ]
        }
    ],
    "materials" : [
        {
            "doubleSided" : true,
            "name" : "material_0",
            "pbrMetallicRoughness" : {
                "baseColorTexture" : {
                    "index" : 0
                },
                "metallicFactor" : 0
            }
        }
    ],
    "meshes" : [
        {
            "name" : "metascan_20220325-1122",
            "primitives" : [
                {
                    "attributes" : {
                        "POSITION" : 0,
                        "NORMAL" : 1,
                        "TEXCOORD_0" : 2
                    },
                    "indices" : 3,
                    "material" : 0
                }
            ]
        }
    ],
    "textures" : [
        {
            "sampler" : 0,
            "source" : 0
        }
    ],
    "images" : [
        {
            "bufferView" : 4,
            "mimeType" : "image/jpeg",
            "name" : "metascan_20220325-1122_tex0"
        }
    ],
    "accessors" : [
        {
            "bufferView" : 0,
            "componentType" : 5126,
            "count" : 6437,
            "max" : [
                0.5734800100326538,
                0.713949978351593,
                0.2549000084400177
            ],
            "min" : [
                -0.5145000219345093,
                -0.5357900261878967,
                -0.02993999980390072
            ],
            "type" : "VEC3"
        },
        {
            "bufferView" : 1,
            "componentType" : 5126,
            "count" : 6437,
            "type" : "VEC3"
        },
        {
            "bufferView" : 2,
            "componentType" : 5126,
            "count" : 6437,
            "type" : "VEC2"
        },
        {
            "bufferView" : 3,
            "componentType" : 5123,
            "count" : 28641,
            "type" : "SCALAR"
        }
    ],
    "bufferViews" : [
        {
            "buffer" : 0,
            "byteLength" : 77244,
            "byteOffset" : 0
        },
        {
            "buffer" : 0,
            "byteLength" : 77244,
            "byteOffset" : 77244
        },
        {
            "buffer" : 0,
            "byteLength" : 51496,
            "byteOffset" : 154488
        },
        {
            "buffer" : 0,
            "byteLength" : 57282,
            "byteOffset" : 205984
        },
        {
            "buffer" : 0,
            "byteLength" : 2555837,
            "byteOffset" : 263268
        }
    ],
    "samplers" : [
        {
            "magFilter" : 9729,
            "minFilter" : 9987
        }
    ],
    "buffers" : [
        {
            "byteLength" : 2819108,
            "uri" : "data:application/octet-stream;base64,"
        }
    ]
}
