{
    "asset" : {
        "generator" : "Khronos glTF Blender I/O v3.2.40",
        "version" : "2.0"
    },
    "scene" : 0,
    "scenes" : [
        {
            "name" : "Scene",
            "nodes" : [
                0
            ]
        }
    ],
    "nodes" : [
        {
            "mesh" : 0,
            "name" : "Scan",
            "rotation" : [
                0.35525423288345337,
                -0.26521241664886475,
                0.028669223189353943,
                0.8958989381790161
            ],
            "scale" : [
                0.14671765267848969,
                0.14671766757965088,
                0.14671766757965088
            ]
        }
    ],
    "meshes" : [
        {
            "name" : "Scan",
            "primitives" : [
                {
                    "attributes" : {
                        "POSITION" : 0,
                        "NORMAL" : 1
                    },
                    "indices" : 2
                }
            ]
        }
    ],
    "accessors" : [
        {
            "bufferView" : 0,
            "componentType" : 5126,
            "count" : 99051,
            "max" : [
                19.510231018066406,
                14.250879287719727,
                10.780295372009277
            ],
            "min" : [
                -16.596939086914062,
                -12.212591171264648,
                -20.578157424926758
            ],
            "type" : "VEC3"
        },
        {
            "bufferView" : 1,
            "componentType" : 5126,
            "count" : 99051,
            "type" : "VEC3"
        },
        {
            "bufferView" : 2,
            "componentType" : 5125,
            "count" : 99051,
            "type" : "SCALAR"
        }
    ],
    "bufferViews" : [
        {
            "buffer" : 0,
            "byteLength" : 1188612,
            "byteOffset" : 0
        },
        {
            "buffer" : 0,
            "byteLength" : 1188612,
            "byteOffset" : 1188612
        },
        {
            "buffer" : 0,
            "byteLength" : 396204,
            "byteOffset" : 2377224
        }
    ],
    "buffers" : [
        {
            "byteLength" : 2773428,
            "uri" : "data:application/octet-stream;base64,"
        }
    ]
}
